<svg xmlns="http://www.w3.org/2000/svg" viewBox="0 0 64 64">
  <rect width="64" height="64" rx="14" fill="#0e0d0a"/>
  <path d="M16 30 L48 30 A16 14 0 0 1 32 50 A16 14 0 0 1 16 30 Z" fill="#fff4d6"/>
  <rect x="14" y="28" width="36" height="4" rx="2" fill="#2ee0c0"/>
  <path d="M22 22 Q24 16 22 12" stroke="#c9b894" stroke-width="2" stroke-linecap="round" fill="none" opacity="0.7"/>
  <path d="M32 20 Q34 14 32 10" stroke="#c9b894" stroke-width="2" stroke-linecap="round" fill="none" opacity="0.7"/>
  <path d="M42 22 Q44 16 42 12" stroke="#c9b894" stroke-width="2" stroke-linecap="round" fill="none" opacity="0.7"/>
  <path d="M24 35 Q28 40 32 35 Q36 30 40 35" stroke="#ff8a4a" stroke-width="2" stroke-linecap="round" fill="none"/>
  <path d="M24 41 Q28 46 32 41 Q36 36 40 41" stroke="#ff8a4a" stroke-width="2" stroke-linecap="round" fill="none"/>
</svg>
